# xmcd
#
# Track frame offsets:
# 150
# 29450
# 57507
# 82475
# 97130
# 125336
# 145117
# 168919
# 196788
# 222911
#
# Disc length: 3691 seconds
#
# Revision: 0
# Processed by: cddbd v1.4PL0 Copyright (c) Steve Scherf et al.
# Submitted via: Axialis_AX_CDPlayer 2.6
#
DISCID=930e690a
DTITLE=Colin John Band - Live From Hell
DYEAR=1900
DGENRE=
TTITLE0=Fell Like a King
TTITLE1=Stop It
TTITLE2=The Thrill is Gone
TTITLE3=Koll and the Gang
TTITLE4=People Say
TTITLE5=Palace of the King
TTITLE6=Good Man Feeling Bad
TTITLE7=Kinky Woman
TTITLE8=Texas Tornado
TTITLE9=Love and Happiness/Voodoo Child
EXTD=
EXTT0=
EXTT1=
EXTT2=
EXTT3=
EXTT4=
EXTT5=
EXTT6=
EXTT7=
EXTT8=
EXTT9=
PLAYORDER=
